<?xml version="1.0" standalone="no"?>
<!DOCTYPE svg PUBLIC "-//W3C//DTD SVG 20010904//EN"
 "http://www.w3.org/TR/2001/REC-SVG-20010904/DTD/svg10.dtd">
<svg version="1.0" xmlns="http://www.w3.org/2000/svg"
 width="512.000000pt" height="512.000000pt" viewBox="0 0 512.000000 512.000000"
 preserveAspectRatio="xMidYMid meet">
<metadata>
Created by potrace 1.11, written by Peter Selinger 2001-2013
</metadata>
<g transform="translate(0.000000,512.000000) scale(0.100000,-0.100000)"
fill="#000000" stroke="none">
<path d="M2378 5035 c-2 -1 -32 -5 -68 -9 -36 -3 -85 -9 -110 -13 -25 -4 -61
-8 -82 -8 -20 0 -34 -3 -31 -7 2 -5 -3 -8 -12 -8 -50 0 -299 -72 -416 -121
-37 -15 -70 -25 -73 -21 -3 3 -6 0 -6 -6 0 -7 -5 -12 -11 -12 -17 0 -145 -63
-242 -119 -193 -111 -357 -237 -512 -391 -55 -55 -104 -106 -110 -113 -5 -7
-26 -31 -45 -53 -217 -252 -404 -610 -493 -944 -64 -236 -85 -420 -82 -690 2
-123 9 -243 19 -300 8 -52 18 -113 22 -135 9 -56 48 -207 74 -285 12 -36 23
-69 24 -75 2 -5 9 -23 15 -40 7 -16 19 -46 26 -65 32 -89 156 -326 201 -387
13 -17 24 -35 24 -38 0 -4 13 -24 30 -45 16 -21 30 -42 30 -48 0 -6 4 -12 8
-14 5 -1 27 -28 51 -58 76 -99 224 -254 319 -335 52 -44 99 -84 105 -90 22
-18 157 -115 162 -115 2 0 26 -15 52 -32 145 -99 411 -219 613 -277 152 -44
283 -69 475 -90 73 -9 452 -6 495 3 14 2 61 10 105 16 179 26 403 88 570 157
144 60 423 213 481 264 11 11 25 19 31 19 6 0 13 3 15 8 2 4 25 25 53 47 98
79 112 91 236 215 69 69 157 166 196 217 39 51 73 90 75 87 3 -2 5 2 5 8 0 7
22 47 48 88 56 86 124 209 162 293 14 31 30 57 35 57 5 0 7 4 4 8 -3 5 12 54
34 109 33 86 83 249 95 314 2 11 6 28 9 37 3 9 8 33 11 52 3 19 7 42 10 50 2
8 6 40 10 71 3 31 8 67 11 80 12 51 11 446 -2 539 -24 187 -39 266 -70 376 -8
28 -16 60 -19 70 -20 95 -127 344 -213 498 -246 440 -678 841 -1112 1032 -36
15 -67 31 -70 34 -5 5 -51 22 -190 70 -78 27 -268 78 -315 85 -11 2 -69 11
-130 20 -94 15 -515 31 -527 20z"/>
</g>
</svg>
